<?xml version="1.0" standalone="no"?>
<!DOCTYPE svg PUBLIC "-//W3C//DTD SVG 20010904//EN"
 "http://www.w3.org/TR/2001/REC-SVG-20010904/DTD/svg10.dtd">
<svg version="1.0" xmlns="http://www.w3.org/2000/svg"
 width="2746.000000pt" height="3160.000000pt" viewBox="0 0 2746.000000 3160.000000"
 preserveAspectRatio="xMidYMid meet">

<g transform="translate(0.000000,3160.000000) scale(0.100000,-0.100000)"
fill="#000000" stroke="none">
<path d="M1440 28519 c-202 -19 -378 -71 -575 -169 -429 -212 -723 -586 -827
-1051 -20 -90 -23 -130 -23 -299 1 -217 17 -319 76 -487 99 -280 302 -558 523
-716 18 -13 18 -16 -12 -93 -294 -771 -370 -1631 -221 -2504 173 -1016 675
-2089 1433 -3065 124 -159 306 -373 409 -479 l76 -79 -34 -271 c-96 -758 -134
-1288 -142 -2006 -6 -512 3 -821 32 -1200 108 -1368 433 -2515 978 -3455 343
-591 833 -1158 1421 -1645 215 -178 621 -466 838 -595 37 -22 68 -43 68 -46 0
-3 -71 -36 -157 -74 -453 -198 -948 -466 -1338 -724 -341 -226 -599 -434 -860
-696 -389 -388 -634 -763 -774 -1181 -98 -295 -134 -635 -100 -942 106 -961
857 -1910 2239 -2825 91 -60 167 -111 169 -113 2 -2 -34 -43 -80 -91 -459
-479 -725 -1106 -670 -1582 55 -466 371 -798 811 -852 411 -50 883 164 1289
586 596 620 835 1400 590 1923 -144 309 -426 500 -779 528 l-95 7 -225 135
c-1213 725 -1966 1448 -2193 2107 -57 164 -71 251 -71 420 0 166 15 259 66
405 209 594 897 1216 1943 1756 230 119 504 243 748 339 106 42 215 86 242 99
98 46 164 112 240 240 9 15 31 8 210 -67 1137 -478 2533 -821 4007 -984 142
-15 258 -30 258 -33 0 -3 -44 -41 -97 -85 -308 -251 -723 -647 -946 -902 -225
-258 -401 -494 -554 -741 -109 -176 -269 -501 -328 -667 -334 -931 -149 -1791
541 -2524 485 -514 1330 -1005 2354 -1367 74 -26 136 -48 137 -48 1 -1 -29
-62 -67 -136 -147 -290 -235 -569 -270 -860 -17 -142 -13 -393 9 -522 60 -351
247 -628 521 -772 274 -144 603 -140 902 10 509 256 933 929 1044 1659 22 147
22 427 0 550 -9 50 -21 122 -27 160 -25 172 -64 239 -269 458 -212 226 -548
326 -860 255 -52 -12 -113 -21 -135 -21 -76 2 -741 230 -1085 372 -681 283
-1163 579 -1505 925 -250 253 -387 497 -441 781 -24 130 -15 371 19 515 69
290 210 584 430 897 359 511 950 1081 1612 1552 227 162 275 221 311 381 l16
70 102 0 c127 0 391 15 611 36 1492 136 2861 608 4084 1407 126 83 156 99 170
89 102 -71 511 -283 746 -387 1592 -704 3129 -636 4395 193 387 253 761 600
1032 958 477 630 788 1404 858 2135 16 167 8 598 -14 732 -86 528 -287 939
-621 1272 -364 364 -928 696 -1530 901 -60 20 -113 40 -118 44 -4 3 57 30 135
59 344 129 814 345 1150 529 1528 839 2550 1954 2987 3260 70 208 140 483 172
673 l23 136 96 41 c484 210 832 648 915 1151 23 138 16 424 -14 552 -109 475
-415 853 -854 1059 -162 76 -312 118 -500 141 -135 16 -413 6 -539 -20 -565
-116 -1021 -507 -1193 -1024 -53 -161 -66 -237 -72 -422 -4 -143 -2 -189 15
-290 52 -302 184 -568 393 -789 172 -181 418 -339 644 -411 50 -16 91 -29 93
-30 7 -5 -84 -340 -124 -457 -311 -909 -961 -1692 -1959 -2358 -362 -241 -807
-483 -1210 -657 -134 -58 -128 -57 -122 -31 113 520 196 1068 236 1578 34 415
34 370 2 381 l-28 10 34 64 c133 250 142 573 26 885 -109 293 -333 625 -626
926 l-128 132 77 109 c360 505 618 974 717 1303 57 189 73 392 42 515 -35 137
-123 253 -244 325 -144 85 -352 128 -491 102 -234 -44 -449 -230 -667 -576
-86 -138 -261 -487 -368 -738 -57 -134 -92 -205 -99 -200 -6 4 -96 64 -201
133 -104 70 -271 176 -370 237 -99 61 -187 116 -197 124 -15 12 -10 36 58 293
347 1308 509 2056 598 2765 46 365 57 524 63 905 6 413 -2 514 -56 727 -93
367 -297 675 -587 884 -558 402 -1364 366 -1791 -79 -153 -160 -243 -340 -284
-567 -22 -117 -17 -370 9 -512 71 -384 235 -735 585 -1256 154 -228 241 -377
344 -587 203 -415 329 -852 373 -1294 21 -211 12 -561 -21 -798 l-11 -82 -241
124 c-1527 782 -3430 1488 -5427 2014 -3118 821 -6131 1087 -7990 706 -666
-137 -1158 -352 -1456 -637 -181 -174 -242 -279 -375 -653 -361 -1017 -695
-2214 -934 -3350 -25 -120 -47 -221 -49 -223 -6 -5 -156 204 -260 363 -518
787 -829 1581 -932 2380 -23 177 -26 690 -6 860 27 219 78 462 139 665 31 105
111 321 124 336 5 6 60 13 132 17 223 10 415 61 632 167 637 314 973 993 825
1670 -40 184 -116 361 -226 528 -82 123 -281 320 -409 405 -323 213 -697 304
-1095 266z m428 -688 c318 -80 562 -317 648 -631 24 -88 25 -301 2 -385 -59
-213 -179 -384 -353 -502 -174 -117 -340 -167 -560 -168 -188 0 -333 34 -473
111 -286 157 -453 432 -454 744 0 197 66 376 194 529 139 165 363 288 593 324
73 12 321 -2 403 -22z m6002 -2611 c1809 -74 3851 -428 5965 -1035 1572 -451
3010 -994 4325 -1632 222 -108 627 -318 643 -333 5 -4 -15 -65 -44 -136 -184
-456 -442 -878 -790 -1294 -123 -148 -440 -473 -594 -610 -539 -478 -1188
-877 -1803 -1109 l-112 -43 -133 22 c-591 97 -1374 257 -1983 405 l-222 54
-143 87 c-552 335 -1133 772 -2099 1578 -250 209 -590 493 -755 631 -1190 993
-1749 1350 -2270 1454 -743 147 -1394 -91 -1868 -684 -44 -55 -84 -101 -88
-103 -22 -9 -483 330 -734 539 -191 159 -519 484 -633 626 -222 280 -333 505
-336 683 -1 74 3 92 27 142 179 365 1029 650 2202 738 384 29 1007 38 1445 20z
m-3929 -1910 c109 -145 236 -289 404 -455 1678 -1665 5592 -3379 9680 -4239
1298 -273 2457 -432 3700 -508 284 -18 1397 -18 1640 0 914 65 1557 198 2079
428 54 24 99 44 101 44 2 0 3 8 -25 -225 -59 -481 -167 -1035 -295 -1501 -38
-140 -173 -584 -179 -591 -1 -1 -46 5 -101 12 -308 43 -819 65 -1068 46 -232
-18 -396 -60 -570 -147 -385 -191 -653 -532 -743 -944 -26 -120 -26 -400 0
-520 70 -324 250 -604 515 -804 158 -118 383 -222 559 -256 34 -7 62 -15 62
-18 0 -8 -150 -212 -286 -388 -190 -246 -350 -436 -572 -681 l-84 -92 -76 38
c-389 195 -891 192 -1287 -6 -433 -218 -706 -608 -756 -1084 -20 -191 14 -422
89 -607 l30 -73 -101 -68 c-887 -594 -2031 -1035 -3152 -1215 -674 -108 -1275
-136 -1980 -90 -791 51 -1711 181 -2480 350 -2253 495 -3898 1386 -4921 2665
-232 290 -397 550 -577 909 -434 865 -671 1868 -749 3160 -15 264 -15 1070 1
1360 73 1348 275 2638 646 4120 158 634 406 1494 424 1474 4 -5 37 -47 72 -94z
m22136 -326 c100 -20 205 -61 296 -115 99 -58 249 -210 304 -309 182 -325 135
-708 -118 -975 -120 -126 -255 -207 -434 -261 -83 -26 -104 -28 -270 -28 -158
-1 -190 2 -264 22 -307 84 -543 303 -630 585 -157 510 200 1019 769 1097 86
12 251 4 347 -16z m-6429 -1251 c131 -81 448 -292 520 -345 l52 -39 -84 -167
c-124 -245 -213 -370 -314 -443 -154 -110 -316 -53 -374 133 -20 64 -23 92
-22 228 1 85 9 205 18 265 26 181 78 435 88 435 5 0 57 -30 116 -67z m1678
-1369 c216 -262 354 -536 354 -704 0 -193 -194 -378 -558 -534 l-83 -36 -55
85 c-137 210 -199 413 -199 650 1 255 77 466 254 701 l65 88 69 -75 c38 -41
107 -120 153 -175z m-666 -4729 c830 -83 1511 -304 2065 -670 383 -253 585
-471 715 -773 343 -795 73 -1985 -656 -2899 -104 -130 -352 -378 -492 -491
-528 -428 -1113 -683 -1762 -768 -168 -21 -570 -30 -741 -15 -629 55 -1221
234 -1893 574 -121 61 -252 132 -292 159 -128 86 -218 203 -270 353 -24 69
-28 95 -28 195 0 82 5 132 18 174 115 381 539 597 940 481 48 -14 169 -69 297
-134 339 -174 607 -280 887 -350 455 -115 887 -112 1253 10 678 224 1227 892
1371 1669 16 84 22 157 22 270 1 252 -19 291 -227 430 -113 76 -356 196 -497
245 -221 77 -501 138 -785 171 -80 9 -281 19 -470 23 -302 7 -336 10 -400 30
-197 63 -363 203 -445 376 -80 168 -80 382 0 549 104 219 327 373 587 406 100
13 624 3 803 -15z m85 -2066 c234 -43 446 -110 606 -190 l76 -38 -9 -58 c-12
-81 -53 -222 -95 -328 -147 -371 -458 -701 -772 -819 -261 -99 -516 -111 -851
-40 -134 28 -296 76 -293 87 1 5 68 85 148 178 312 364 613 759 859 1130 l77
115 72 -8 c40 -4 122 -17 182 -29z m-14890 -9943 c57 -26 98 -70 129 -136 33
-70 30 -252 -6 -380 -120 -430 -498 -903 -873 -1090 -114 -57 -194 -80 -278
-80 -90 0 -135 18 -193 75 -40 40 -54 62 -67 111 -115 410 367 1189 897 1449
161 79 294 97 391 51z m7482 -1087 c111 -53 178 -199 190 -415 24 -447 -240
-1061 -569 -1319 -416 -328 -706 6 -573 659 76 378 299 782 535 969 158 127
299 162 417 106z"/>
<path d="M6860 18064 c-336 -42 -626 -202 -811 -447 -116 -153 -208 -384 -194
-487 15 -109 98 -213 197 -246 63 -20 177 -15 228 10 47 24 108 83 130 127 10
19 28 64 40 99 101 301 479 439 795 291 127 -59 222 -164 266 -292 19 -57 20
-76 14 -164 -14 -185 -12 -216 19 -278 80 -163 286 -216 438 -111 98 68 140
190 142 409 1 195 -26 311 -115 485 -153 301 -441 511 -799 585 -75 16 -285
27 -350 19z"/>
<path d="M12960 16375 c-353 -65 -660 -289 -818 -598 -116 -226 -116 -383 -2
-497 61 -61 119 -84 210 -84 86 0 139 22 203 83 44 41 65 79 96 171 47 143
177 264 339 318 63 21 97 26 187 26 179 1 314 -54 425 -173 97 -103 138 -216
126 -345 -19 -192 -19 -189 4 -248 61 -163 251 -236 408 -157 88 44 139 111
163 216 75 333 -25 687 -269 944 -167 178 -397 300 -646 344 -108 18 -322 18
-426 0z"/>
<path d="M9030 15541 c-78 -24 -166 -96 -202 -165 -31 -61 -48 -161 -48 -297
0 -264 70 -495 219 -719 68 -104 248 -286 351 -356 329 -225 732 -308 1128
-233 426 82 797 351 985 716 86 168 146 385 132 482 -16 116 -105 231 -209
269 -59 22 -2185 313 -2276 311 -30 0 -66 -4 -80 -8z m1200 -477 c564 -76
1026 -138 1027 -139 1 0 -7 -37 -18 -80 -81 -316 -344 -590 -673 -700 -300
-101 -597 -81 -881 59 -286 141 -489 395 -549 688 -16 79 -22 298 -8 312 4 4
23 5 42 3 19 -3 496 -68 1060 -143z"/>
</g>
</svg>
